<svg width="10" height="20" viewBox="0 0 17 20" fill="none" xmlns="http://www.w3.org/2000/svg">
<path d="M2 20.0002C1.45 20.0002 0.979 19.8045 0.587 19.4132C0.195667 19.0212 0 18.5502 0 18.0002V4.00018H2V18.0002H13V20.0002H2ZM6 16.0002C5.45 16.0002 4.97933 15.8045 4.588 15.4132C4.196 15.0212 4 14.5502 4 14.0002V2.00018C4 1.45018 4.196 0.979183 4.588 0.587183C4.97933 0.19585 5.45 0.000183105 6 0.000183105H15C15.55 0.000183105 16.021 0.19585 16.413 0.587183C16.8043 0.979183 17 1.45018 17 2.00018V14.0002C17 14.5502 16.8043 15.0212 16.413 15.4132C16.021 15.8045 15.55 16.0002 15 16.0002H6ZM6 14.0002H15V2.00018H6V14.0002Z" fill="#96A3BE"/>
</svg>
