<svg width="32" height="32" viewBox="0 0 32 32" fill="none" xmlns="http://www.w3.org/2000/svg">
<path d="M16.8332 16.0002C16.8332 15.54 16.4601 15.1669 15.9998 15.1669C15.5396 15.1669 15.1665 15.54 15.1665 16.0002C15.1665 16.4604 15.5396 16.8335 15.9998 16.8335C16.4601 16.8335 16.8332 16.4604 16.8332 16.0002Z" stroke="#718096" stroke-width="2" stroke-linecap="round" stroke-linejoin="round"/>
<path d="M22.6667 16.0002C22.6667 15.54 22.2936 15.1669 21.8333 15.1669C21.3731 15.1669 21 15.54 21 16.0002C21 16.4604 21.3731 16.8335 21.8333 16.8335C22.2936 16.8335 22.6667 16.4604 22.6667 16.0002Z" stroke="#718096" stroke-width="2" stroke-linecap="round" stroke-linejoin="round"/>
<path d="M10.9999 16.0002C10.9999 15.54 10.6268 15.1669 10.1666 15.1669C9.70635 15.1669 9.33325 15.54 9.33325 16.0002C9.33325 16.4604 9.70635 16.8335 10.1666 16.8335C10.6268 16.8335 10.9999 16.4604 10.9999 16.0002Z" stroke="#718096" stroke-width="2" stroke-linecap="round" stroke-linejoin="round"/>
<rect x="0.5" y="0.500183" width="31" height="31" rx="7.5" stroke="#E2E8F0"/>
</svg>
