<svg width="21" height="41" viewBox="0 0 40 41" fill="none" xmlns="http://www.w3.org/2000/svg">
<rect y="0.726318" width="40" height="40" rx="20" fill="#FEFAE6"/>
<path d="M23 9H17C15.6744 9.00159 14.4036 9.52888 13.4662 10.4662C12.5289 11.4036 12.0016 12.6744 12 14V28C12.0016 29.3256 12.5289 30.5964 13.4662 31.5338C14.4036 32.4711 15.6744 32.9984 17 33H23C24.3256 32.9984 25.5964 32.4711 26.5338 31.5338C27.4711 30.5964 27.9984 29.3256 28 28V14C27.9984 12.6744 27.4711 11.4036 26.5338 10.4662C25.5964 9.52888 24.3256 9.00159 23 9ZM17 11H23C23.7956 11 24.5587 11.3161 25.1213 11.8787C25.6839 12.4413 26 13.2044 26 14V25H14V14C14 13.2044 14.3161 12.4413 14.8787 11.8787C15.4413 11.3161 16.2044 11 17 11ZM23 31H17C16.2044 31 15.4413 30.6839 14.8787 30.1213C14.3161 29.5587 14 28.7956 14 28V27H26V28C26 28.7956 25.6839 29.5587 25.1213 30.1213C24.5587 30.6839 23.7956 31 23 31Z" fill="#5D6A83"/>
</svg>
