<svg width="400" height="30" viewBox="0 0 400 30" fill="none" xmlns="http://www.w3.org/2000/svg">
<circle cx="15" cy="15" r="15" fill="#F2F6FF"/>
<path d="M14.5513 20.75V12.742L12.6613 13.904V11.804L14.5513 10.67H16.4973V20.75H14.5513Z" fill="#D8E3F8"/>
<line x1="29" y1="14.5" x2="75" y2="14.5" stroke="#D8E3F8"/>
<circle cx="89" cy="15" r="15" fill="#F2F6FF"/>
<path d="M85.4754 20.736V19.084L89.7034 15.332C90.0207 15.052 90.2447 14.7883 90.3754 14.541C90.5061 14.2937 90.5714 14.0627 90.5714 13.848C90.5714 13.54 90.5084 13.267 90.3824 13.029C90.2564 12.7863 90.0791 12.5973 89.8504 12.462C89.6217 12.322 89.3534 12.252 89.0454 12.252C88.7234 12.252 88.4387 12.3267 88.1914 12.476C87.9487 12.6207 87.7597 12.8143 87.6244 13.057C87.4891 13.295 87.4261 13.554 87.4354 13.834H85.4754C85.4754 13.1433 85.6271 12.546 85.9304 12.042C86.2337 11.538 86.6561 11.1483 87.1974 10.873C87.7387 10.5977 88.3687 10.46 89.0874 10.46C89.7454 10.46 90.3334 10.6047 90.8514 10.894C91.3741 11.1787 91.7847 11.5777 92.0834 12.091C92.3821 12.6043 92.5314 13.1993 92.5314 13.876C92.5314 14.3753 92.4614 14.7907 92.3214 15.122C92.1814 15.4487 91.9737 15.752 91.6984 16.032C91.4231 16.3073 91.0847 16.62 90.6834 16.97L87.9534 19.364L87.7994 18.944H92.5314V20.736H85.4754Z" fill="#D8E3F8"/>
<line x1="103" y1="14.5" x2="149" y2="14.5" stroke="#D8E3F8"/>
<circle cx="163" cy="15" r="15" fill="#F2F6FF"/>
<path d="M162.784 20.932C162.28 20.932 161.8 20.8317 161.342 20.631C160.885 20.4257 160.486 20.1387 160.145 19.77C159.809 19.4013 159.569 18.9673 159.424 18.468L161.272 17.978C161.37 18.3467 161.562 18.6337 161.846 18.839C162.136 19.0397 162.448 19.14 162.784 19.14C163.074 19.14 163.337 19.07 163.575 18.93C163.818 18.79 164.009 18.601 164.149 18.363C164.294 18.125 164.366 17.8613 164.366 17.572C164.366 17.138 164.217 16.767 163.918 16.459C163.624 16.1463 163.246 15.99 162.784 15.99C162.644 15.99 162.509 16.011 162.378 16.053C162.248 16.0903 162.122 16.144 162 16.214L161.146 14.716L164.352 12.056L164.492 12.462H159.816V10.67H166.116V12.462L163.624 14.87L163.61 14.338C164.189 14.4267 164.677 14.6297 165.073 14.947C165.475 15.2597 165.778 15.647 165.983 16.109C166.193 16.5663 166.298 17.054 166.298 17.572C166.298 18.2067 166.137 18.7783 165.815 19.287C165.493 19.791 165.066 20.1923 164.534 20.491C164.002 20.785 163.419 20.932 162.784 20.932Z" fill="#D8E3F8"/>
<line x1="177" y1="14.5" x2="223" y2="14.5" stroke="#D8E3F8"/>
<circle cx="237" cy="15" r="15" fill="#F2F6FF"/>
<path d="M237.775 20.75V19.182H233.393V17.404L236.571 10.67H238.755L235.577 17.404H237.775V14.884H239.707V17.404H240.603V19.182H239.707V20.75H237.775Z" fill="#D8E3F8"/>
<line x1="251" y1="14.5" x2="297" y2="14.5" stroke="#D8E3F8"/>
<circle cx="311" cy="15" r="15" fill="#F2F6FF"/>
<path d="M310.854 20.96C310.345 20.96 309.867 20.855 309.419 20.645C308.976 20.435 308.593 20.1433 308.271 19.77C307.949 19.3967 307.718 18.9627 307.578 18.468L309.412 17.978C309.473 18.216 309.58 18.4213 309.734 18.594C309.893 18.7667 310.075 18.902 310.28 19C310.49 19.0933 310.705 19.14 310.924 19.14C311.213 19.14 311.477 19.07 311.715 18.93C311.958 18.79 312.149 18.601 312.289 18.363C312.434 18.125 312.506 17.8613 312.506 17.572C312.506 17.2827 312.434 17.019 312.289 16.781C312.149 16.543 311.958 16.354 311.715 16.214C311.477 16.074 311.213 16.004 310.924 16.004C310.569 16.004 310.28 16.0647 310.056 16.186C309.832 16.3027 309.664 16.4147 309.552 16.522L307.942 16.032L308.25 10.67H313.752V12.448H309.3L309.972 11.818L309.762 15.276L309.44 14.884C309.692 14.6787 309.979 14.5293 310.301 14.436C310.623 14.3427 310.924 14.296 311.204 14.296C311.839 14.296 312.396 14.4383 312.877 14.723C313.362 15.003 313.74 15.3903 314.011 15.885C314.286 16.375 314.424 16.9373 314.424 17.572C314.424 18.2067 314.258 18.7807 313.927 19.294C313.596 19.8027 313.159 20.2087 312.618 20.512C312.077 20.8107 311.489 20.96 310.854 20.96Z" fill="#D8E3F8"/>
<line x1="325" y1="14.5" x2="371" y2="14.5" stroke="#D8E3F8"/>
<circle cx="385" cy="15" r="15" fill="#F2F6FF"/>
<path d="M385.14 20.96C384.472 20.96 383.873 20.8037 383.341 20.491C382.813 20.1783 382.396 19.7443 382.088 19.189C381.78 18.629 381.626 17.9827 381.626 17.25V14.324C381.626 13.5307 381.78 12.847 382.088 12.273C382.396 11.6943 382.83 11.251 383.39 10.943C383.95 10.6303 384.608 10.474 385.364 10.474C385.854 10.474 386.32 10.5463 386.764 10.691C387.207 10.8357 387.613 11.0807 387.982 11.426L386.624 12.784C386.456 12.616 386.262 12.4853 386.043 12.392C385.823 12.2987 385.597 12.252 385.364 12.252C385 12.252 384.682 12.3383 384.412 12.511C384.146 12.679 383.938 12.9007 383.789 13.176C383.644 13.4467 383.572 13.736 383.572 14.044V15.542L383.25 15.192C383.539 14.898 383.873 14.674 384.251 14.52C384.633 14.3613 385.028 14.282 385.434 14.282C386.068 14.282 386.626 14.4243 387.107 14.709C387.592 14.9937 387.97 15.3833 388.241 15.878C388.516 16.3727 388.654 16.9373 388.654 17.572C388.654 18.2067 388.493 18.7807 388.171 19.294C387.849 19.8027 387.422 20.2087 386.89 20.512C386.358 20.8107 385.774 20.96 385.14 20.96ZM385.14 19.14C385.429 19.14 385.693 19.07 385.931 18.93C386.173 18.79 386.365 18.601 386.505 18.363C386.649 18.125 386.722 17.8613 386.722 17.572C386.722 17.2827 386.652 17.019 386.512 16.781C386.372 16.5383 386.183 16.347 385.945 16.207C385.707 16.0623 385.443 15.99 385.154 15.99C384.864 15.99 384.598 16.0623 384.356 16.207C384.118 16.347 383.926 16.5383 383.782 16.781C383.642 17.019 383.572 17.2827 383.572 17.572C383.572 17.852 383.642 18.111 383.782 18.349C383.922 18.587 384.111 18.7783 384.349 18.923C384.587 19.0677 384.85 19.14 385.14 19.14Z" fill="#D8E3F8"/>
</svg>
