<svg width="22" height="32" viewBox="0 0 32 32" fill="none" xmlns="http://www.w3.org/2000/svg">
<rect width="32" height="32" rx="8" fill="#CBD5E0"/>
<path d="M16.8337 16C16.8337 15.5397 16.4606 15.1666 16.0003 15.1666C15.5401 15.1666 15.167 15.5397 15.167 16C15.167 16.4602 15.5401 16.8333 16.0003 16.8333C16.4606 16.8333 16.8337 16.4602 16.8337 16Z" stroke="white" stroke-width="2" stroke-linecap="round" stroke-linejoin="round"/>
<path d="M22.6667 16C22.6667 15.5397 22.2936 15.1666 21.8333 15.1666C21.3731 15.1666 21 15.5397 21 16C21 16.4602 21.3731 16.8333 21.8333 16.8333C22.2936 16.8333 22.6667 16.4602 22.6667 16Z" stroke="white" stroke-width="2" stroke-linecap="round" stroke-linejoin="round"/>
<path d="M11.0002 16C11.0002 15.5397 10.6271 15.1666 10.1668 15.1666C9.70659 15.1666 9.3335 15.5397 9.3335 16C9.3335 16.4602 9.70659 16.8333 10.1668 16.8333C10.6271 16.8333 11.0002 16.4602 11.0002 16Z" stroke="white" stroke-width="2" stroke-linecap="round" stroke-linejoin="round"/>
</svg>
