<svg width="21" height="41" viewBox="0 0 41 41" fill="none" xmlns="http://www.w3.org/2000/svg">
<rect x="0.945801" y="0.157959" width="40" height="40" rx="20" fill="#FFECE6"/>
<path d="M26.9993 10.7883C25.7787 9.69787 24.2839 8.96091 22.6756 8.65676C21.0674 8.35261 19.4067 8.49278 17.8722 9.06219C16.3377 9.6316 14.9875 10.6087 13.9669 11.8883C12.9464 13.1679 12.2941 14.7016 12.0803 16.3243C11.8883 17.7472 12.0419 19.1953 12.528 20.5463C13.0142 21.8972 13.8186 23.1111 14.8733 24.0853C15.5255 24.6573 16.0518 25.3584 16.4188 26.1444C16.7858 26.9304 16.9855 27.7841 17.0053 28.6513V28.8123C17.0064 29.7907 17.3955 30.7286 18.0872 31.4204C18.779 32.1122 19.717 32.5013 20.6953 32.5023H21.3153C22.2936 32.5013 23.2316 32.1122 23.9234 31.4204C24.6151 30.7286 25.0042 29.7907 25.0053 28.8123V28.2633C25.0203 27.4968 25.2007 26.7425 25.5341 26.0522C25.8676 25.3618 26.3462 24.7516 26.9373 24.2633C27.8959 23.4238 28.6651 22.3901 29.1941 21.2308C29.723 20.0715 29.9996 18.8131 30.0054 17.5388C30.0113 16.2646 29.7463 15.0036 29.2281 13.8395C28.7098 12.6754 27.9501 11.6347 26.9993 10.7863V10.7883ZM21.3153 30.5023H20.6953C20.2472 30.5018 19.8177 30.3236 19.5009 30.0068C19.1841 29.6899 19.0058 29.2604 19.0053 28.8123C19.0053 28.8123 18.9983 28.5523 18.9973 28.5023H23.0053V28.8123C23.0048 29.2604 22.8265 29.6899 22.5097 30.0068C22.1929 30.3236 21.7634 30.5018 21.3153 30.5023ZM25.6153 22.7613C24.4767 23.7489 23.6545 25.0501 23.2513 26.5023H22.0053V19.3183C22.5882 19.1122 23.0932 18.7311 23.4512 18.227C23.8092 17.723 24.0027 17.1206 24.0053 16.5023C24.0053 16.2371 23.8999 15.9828 23.7124 15.7952C23.5249 15.6077 23.2705 15.5023 23.0053 15.5023C22.7401 15.5023 22.4857 15.6077 22.2982 15.7952C22.1107 15.9828 22.0053 16.2371 22.0053 16.5023C22.0053 16.7675 21.8999 17.0219 21.7124 17.2094C21.5249 17.397 21.2705 17.5023 21.0053 17.5023C20.7401 17.5023 20.4857 17.397 20.2982 17.2094C20.1107 17.0219 20.0053 16.7675 20.0053 16.5023C20.0053 16.2371 19.8999 15.9828 19.7124 15.7952C19.5249 15.6077 19.2705 15.5023 19.0053 15.5023C18.7401 15.5023 18.4857 15.6077 18.2982 15.7952C18.1107 15.9828 18.0053 16.2371 18.0053 16.5023C18.0079 17.1206 18.2014 17.723 18.5594 18.227C18.9174 18.7311 19.4224 19.1122 20.0053 19.3183V26.5023H18.6833C18.2323 25.0115 17.3864 23.6705 16.2353 22.6213C15.2583 21.7109 14.562 20.54 14.2288 19.2468C13.8955 17.9536 13.9391 16.592 14.3545 15.3228C14.7699 14.0536 15.5396 12.9297 16.573 12.0837C17.6063 11.2377 18.8601 10.705 20.1863 10.5483C20.4612 10.5176 20.7377 10.5023 21.0143 10.5023C22.7319 10.4972 24.39 11.131 25.6663 12.2803C26.406 12.9399 26.997 13.7492 27.4002 14.6546C27.8035 15.5599 28.0096 16.5406 28.0051 17.5317C28.0005 18.5227 27.7854 19.5015 27.3739 20.4031C26.9624 21.3047 26.364 22.1085 25.6183 22.7613H25.6153Z" fill="#5D6A83"/>
</svg>
