<svg width="14" height="19" viewBox="0 0 20 21" fill="none" xmlns="http://www.w3.org/2000/svg">
<path d="M10 5.1333H18.3333" stroke="#718096" stroke-width="1.5" stroke-miterlimit="10" stroke-linecap="round" stroke-linejoin="round"/>
<path d="M11.85 2.16663H16.4833C17.9667 2.16663 18.3333 2.53329 18.3333 3.99996V7.42496C18.3333 8.89163 17.9667 9.25829 16.4833 9.25829H11.85C10.3667 9.25829 10 8.89163 10 7.42496V3.99996C10 2.53329 10.3667 2.16663 11.85 2.16663Z" stroke="#718096" stroke-width="1.5" stroke-linecap="round" stroke-linejoin="round"/>
<path d="M1.6665 14.7167H9.99984" stroke="#718096" stroke-width="1.5" stroke-miterlimit="10" stroke-linecap="round" stroke-linejoin="round"/>
<path d="M3.5165 11.75H8.14984C9.63317 11.75 9.99984 12.1167 9.99984 13.5833V17.0083C9.99984 18.475 9.63317 18.8417 8.14984 18.8417H3.5165C2.03317 18.8417 1.6665 18.475 1.6665 17.0083V13.5833C1.6665 12.1167 2.03317 11.75 3.5165 11.75Z" stroke="#718096" stroke-width="1.5" stroke-linecap="round" stroke-linejoin="round"/>
<path d="M18.3333 13C18.3333 16.225 15.725 18.8333 12.5 18.8333L13.375 17.375" stroke="#718096" stroke-width="1.5" stroke-linecap="round" stroke-linejoin="round"/>
<path d="M1.6665 7.99996C1.6665 4.77496 4.27484 2.16663 7.49984 2.16663L6.62485 3.62496" stroke="#718096" stroke-width="1.5" stroke-linecap="round" stroke-linejoin="round"/>
</svg>
