<svg width="27" height="32" viewBox="0 0 32 32" fill="none" xmlns="http://www.w3.org/2000/svg">
<rect x="0.5" y="0.5" width="31" height="31" rx="7.5" fill="white"/>
<path d="M13.75 11.25H12.25C11.8522 11.25 11.4706 11.408 11.1893 11.6893C10.908 11.9706 10.75 12.3522 10.75 12.75V21.75C10.75 22.1478 10.908 22.5294 11.1893 22.8107C11.4706 23.092 11.8522 23.25 12.25 23.25H19.75C20.1478 23.25 20.5294 23.092 20.8107 22.8107C21.092 22.5294 21.25 22.1478 21.25 21.75V12.75C21.25 12.3522 21.092 11.9706 20.8107 11.6893C20.5294 11.408 20.1478 11.25 19.75 11.25H18.25M13.75 11.25C13.75 11.6478 13.908 12.0294 14.1893 12.3107C14.4706 12.592 14.8522 12.75 15.25 12.75H16.75C17.1478 12.75 17.5294 12.592 17.8107 12.3107C18.092 12.0294 18.25 11.6478 18.25 11.25M13.75 11.25C13.75 10.8522 13.908 10.4706 14.1893 10.1893C14.4706 9.90804 14.8522 9.75 15.25 9.75H16.75C17.1478 9.75 17.5294 9.90804 17.8107 10.1893C18.092 10.4706 18.25 10.8522 18.25 11.25M16 16.5H18.25M16 19.5H18.25M13.75 16.5H13.7575M13.75 19.5H13.7575" stroke="#936DFF" stroke-width="1.5" stroke-linecap="round" stroke-linejoin="round"/>
<rect x="0.5" y="0.5" width="31" height="31" rx="7.5" stroke="#EDF2F7"/>
</svg>
