<svg width="35" height="48" viewBox="0 0 48 48" fill="none" xmlns="http://www.w3.org/2000/svg">
<rect width="48" height="48" rx="24" fill="#FAFAFA"/>
<path d="M21.6665 15.8333C21.6665 15.2145 21.9123 14.621 22.3499 14.1834C22.7875 13.7458 23.381 13.5 23.9998 13.5C24.6187 13.5 25.2122 13.7458 25.6498 14.1834C26.0873 14.621 26.3332 15.2145 26.3332 15.8333C27.673 16.4669 28.8151 17.453 29.6372 18.6862C30.4593 19.9193 30.9304 21.3529 30.9998 22.8333V26.3333C31.0876 27.0587 31.3445 27.7532 31.7498 28.3611C32.1551 28.9691 32.6974 29.4733 33.3332 29.8333H14.6665C15.3023 29.4733 15.8446 28.9691 16.2499 28.3611C16.6552 27.7532 16.912 27.0587 16.9998 26.3333V22.8333C17.0693 21.3529 17.5404 19.9193 18.3624 18.6862C19.1845 17.453 20.3267 16.4669 21.6665 15.8333" stroke="#1A202C" stroke-width="1.5" stroke-linecap="round" stroke-linejoin="round"/>
<path d="M20.5 29.8334V31C20.5 31.9283 20.8687 32.8185 21.5251 33.4749C22.1815 34.1313 23.0717 34.5 24 34.5C24.9283 34.5 25.8185 34.1313 26.4749 33.4749C27.1313 32.8185 27.5 31.9283 27.5 31V29.8334" stroke="#1A202C" stroke-width="1.5" stroke-linecap="round" stroke-linejoin="round"/>
<circle cx="33" cy="18" r="5.75" fill="#FF4747" stroke="#F2F6FF" stroke-width="1.5"/>
</svg>
