<svg width="17" height="17" viewBox="0 0 33 17" fill="none" xmlns="http://www.w3.org/2000/svg">
<path d="M10.04 0.487999C11.064 0.487999 11.976 0.727999 12.776 1.208C13.576 1.672 14.2 2.32 14.648 3.152C15.096 3.968 15.32 4.888 15.32 5.912V6.224C15.32 7.248 15.096 8.176 14.648 9.008C14.2 9.84 13.576 10.496 12.776 10.976C11.976 11.44 11.064 11.672 10.04 11.672H6.08V17H0.776V0.487999H10.04ZM6.08 7.808H8.264C8.824 7.808 9.24 7.664 9.512 7.376C9.8 7.088 9.944 6.696 9.944 6.2V6.008C9.944 5.496 9.8 5.104 9.512 4.832C9.24 4.544 8.824 4.4 8.264 4.4H6.08V7.808Z" fill="#124072"/>
<path d="M18.2963 0.487999H23.6003V12.776H32.0723V17H18.2963V0.487999Z" fill="#90C841"/>
</svg>
