<svg width="20" height="20" viewBox="0 0 20 20" fill="none" xmlns="http://www.w3.org/2000/svg">
<path d="M14.1667 14.1667H15.8333C16.2754 14.1667 16.6993 13.9911 17.0118 13.6785C17.3244 13.366 17.5 12.942 17.5 12.5V9.16667C17.5 8.72464 17.3244 8.30072 17.0118 7.98816C16.6993 7.6756 16.2754 7.5 15.8333 7.5H4.16667C3.72464 7.5 3.30072 7.6756 2.98816 7.98816C2.67559 8.30072 2.5 8.72464 2.5 9.16667V12.5C2.5 12.942 2.67559 13.366 2.98816 13.6785C3.30072 13.9911 3.72464 14.1667 4.16667 14.1667H5.83333" stroke="#718096" stroke-width="1.5" stroke-linecap="round" stroke-linejoin="round"/>
<path d="M14.1668 7.5V4.16667C14.1668 3.72464 13.9912 3.30072 13.6787 2.98816C13.3661 2.67559 12.9422 2.5 12.5002 2.5H7.50016C7.05814 2.5 6.63421 2.67559 6.32165 2.98816C6.00909 3.30072 5.8335 3.72464 5.8335 4.16667V7.5" stroke="#718096" stroke-width="1.5" stroke-linecap="round" stroke-linejoin="round"/>
<path d="M12.5002 10.8333H7.50016C6.57969 10.8333 5.8335 11.5795 5.8335 12.5V15.8333C5.8335 16.7538 6.57969 17.5 7.50016 17.5H12.5002C13.4206 17.5 14.1668 16.7538 14.1668 15.8333V12.5C14.1668 11.5795 13.4206 10.8333 12.5002 10.8333Z" stroke="#718096" stroke-width="1.5" stroke-linecap="round" stroke-linejoin="round"/>
</svg>
