<svg width="17" height="23" viewBox="0 0 22 23" fill="none" xmlns="http://www.w3.org/2000/svg">
<path d="M8.25016 10.5833C10.2752 10.5833 11.9168 8.94171 11.9168 6.91667C11.9168 4.89162 10.2752 3.25 8.25016 3.25C6.22512 3.25 4.5835 4.89162 4.5835 6.91667C4.5835 8.94171 6.22512 10.5833 8.25016 10.5833Z" stroke="#718096" stroke-width="1.5" stroke-linecap="round" stroke-linejoin="round"/>
<path d="M2.75 19.75V17.9167C2.75 16.9442 3.13631 16.0116 3.82394 15.3239C4.51158 14.6363 5.44421 14.25 6.41667 14.25H10.0833C11.0558 14.25 11.9884 14.6363 12.6761 15.3239C13.3637 16.0116 13.75 16.9442 13.75 17.9167V19.75" stroke="#718096" stroke-width="1.5" stroke-linecap="round" stroke-linejoin="round"/>
<path d="M14.6665 3.36914C15.4552 3.57108 16.1543 4.02978 16.6535 4.67293C17.1527 5.31607 17.4237 6.10707 17.4237 6.92122C17.4237 7.73538 17.1527 8.52638 16.6535 9.16952C16.1543 9.81266 15.4552 10.2714 14.6665 10.4733" stroke="#718096" stroke-width="1.5" stroke-linecap="round" stroke-linejoin="round"/>
<path d="M19.25 19.75V17.9166C19.2453 17.1073 18.9731 16.3224 18.4757 15.684C17.9782 15.0456 17.2836 14.5898 16.5 14.3875" stroke="#718096" stroke-width="1.5" stroke-linecap="round" stroke-linejoin="round"/>
</svg>
