<svg width="14" height="14" viewBox="0 0 20 20" fill="none" xmlns="http://www.w3.org/2000/svg">
<path d="M10.55 2.09853L10.525 2.15686L8.1083 7.76519H5.7333C5.16663 7.76519 4.62497 7.88186 4.1333 8.09019L5.59163 4.60686L5.62497 4.52353L5.6833 4.39019C5.69997 4.34019 5.71663 4.29019 5.74163 4.24853C6.8333 1.72353 8.06663 1.14853 10.55 2.09853Z" stroke="#718096" stroke-width="1.5" stroke-linecap="round" stroke-linejoin="round"/>
<path d="M15.0417 7.93172C14.6667 7.81506 14.2667 7.76506 13.8667 7.76506H8.1084L10.5251 2.15672L10.5501 2.09839C10.6751 2.14006 10.7917 2.19839 10.9167 2.24839L12.7584 3.02339C13.7834 3.44839 14.5001 3.89006 14.9334 4.42339C15.0167 4.52339 15.0834 4.61506 15.1417 4.72339C15.2167 4.84006 15.2751 4.95672 15.3084 5.08172C15.3417 5.15672 15.3667 5.23172 15.3834 5.29839C15.6084 5.99839 15.4751 6.85672 15.0417 7.93172Z" stroke="#718096" stroke-width="1.5" stroke-linecap="round" stroke-linejoin="round"/>
<path d="M17.9346 11.832V13.457C17.9346 13.6237 17.9263 13.7904 17.9179 13.957C17.7596 16.8654 16.1346 18.332 13.0513 18.332H6.55127C6.35127 18.332 6.15127 18.3154 5.9596 18.2904C3.3096 18.1154 1.89294 16.6987 1.71794 14.0487C1.69294 13.857 1.67627 13.657 1.67627 13.457V11.832C1.67627 10.157 2.69294 8.71538 4.14294 8.09038C4.64294 7.88205 5.17627 7.76538 5.74294 7.76538H13.8763C14.2846 7.76538 14.6846 7.82371 15.0513 7.93205C16.7096 8.44038 17.9346 9.99038 17.9346 11.832Z" stroke="#718096" stroke-width="1.5" stroke-linecap="round" stroke-linejoin="round"/>
<path d="M5.5915 4.60669L4.13317 8.09002C2.68317 8.71502 1.6665 10.1567 1.6665 11.8317V9.39002C1.6665 7.02336 3.34984 5.04836 5.5915 4.60669Z" stroke="#718096" stroke-width="1.5" stroke-linecap="round" stroke-linejoin="round"/>
<path d="M17.9322 9.38963V11.8313C17.9322 9.99797 16.7155 8.43963 15.0488 7.93963C15.4822 6.8563 15.6072 6.0063 15.3988 5.29797C15.3822 5.22297 15.3572 5.14797 15.3238 5.0813C16.8738 5.8813 17.9322 7.52297 17.9322 9.38963Z" stroke="#718096" stroke-width="1.5" stroke-linecap="round" stroke-linejoin="round"/>
</svg>
